<svg width="24" height="24" viewBox="0 0 24 24" fill="none" xmlns="http://www.w3.org/2000/svg">
<path fill-rule="evenodd" clip-rule="evenodd" d="M20.16 12.1932C20.16 11.5905 20.1059 11.011 20.0055 10.4546H12V13.7425H16.5746C16.3775 14.8051 15.7786 15.7053 14.8784 16.308V18.4407H17.6255C19.2327 16.961 20.16 14.7819 20.16 12.1932Z" fill="#4285F4"/>
<path fill-rule="evenodd" clip-rule="evenodd" d="M12.0002 20.5C14.2952 20.5 16.2193 19.7389 17.6257 18.4407L14.8786 16.308C14.1175 16.818 13.1439 17.1193 12.0002 17.1193C9.78635 17.1193 7.91248 15.6241 7.24407 13.615H4.4043V15.8173C5.80294 18.5953 8.67749 20.5 12.0002 20.5Z" fill="#34A853"/>
<path fill-rule="evenodd" clip-rule="evenodd" d="M7.24387 13.6151C7.07387 13.105 6.97728 12.5603 6.97728 12C6.97728 11.4398 7.07387 10.895 7.24387 10.385V8.18277H4.40409C3.82841 9.33027 3.5 10.6285 3.5 12C3.5 13.3716 3.82841 14.6698 4.40409 15.8173L7.24387 13.6151Z" fill="#FBBC05"/>
<path fill-rule="evenodd" clip-rule="evenodd" d="M12.0002 6.88072C13.2482 6.88072 14.3686 7.30958 15.2495 8.15186L17.6875 5.7139C16.2155 4.3423 14.2914 3.50003 12.0002 3.50003C8.67748 3.50003 5.80294 5.40481 4.4043 8.18277L7.24407 10.385C7.91248 8.37595 9.78635 6.88072 12.0002 6.88072Z" fill="#EA4335"/>
</svg>
