<svg width="164" height="48" viewBox="0 0 164 48" fill="none" xmlns="http://www.w3.org/2000/svg">
<path d="M44 10C44 8.4 43.38 6.88 42.24 5.76C41.1 4.62 39.6 4 38 4H10C8.4 4 6.88 4.62 5.76 5.76C4.62 6.9 4 8.4 4 10V30.02C4 31.62 4.64 33.14 5.78 34.26C6.92 35.4 8.42 36.02 10.02 36.02H12V42C12.0021 42.5298 12.2135 43.0373 12.5881 43.4119C12.9627 43.7865 13.4702 43.9979 14 44C14.44 44 14.88 43.86 15.24 43.56L24.7 36.02H38.02C39.62 36.02 41.12 35.4 42.26 34.26C43.4 33.12 44.02 31.62 44.02 30.02V10H44ZM39.44 31.44C39.2538 31.6263 39.0323 31.7735 38.7884 31.8731C38.5446 31.9727 38.2834 32.0226 38.02 32.02H24C23.54 32.02 23.1 32.18 22.76 32.46L16 37.84V34.02C16 32.92 15.1 32.02 14 32.02H10.02C9.75661 32.0227 9.49534 31.9728 9.25148 31.8732C9.00762 31.7736 8.78608 31.6264 8.59983 31.4402C8.41357 31.2539 8.26636 31.0324 8.16679 30.7885C8.06723 30.5447 8.01733 30.2834 8.02 30.02V10C8.02 9.48 8.22 8.96 8.58 8.58C8.76622 8.39374 8.98773 8.2465 9.23155 8.14691C9.47538 8.04732 9.73663 7.99737 10 8H38C38.2634 7.99733 38.5247 8.04723 38.7685 8.14679C39.0124 8.24636 39.2339 8.39357 39.4202 8.57983C39.6064 8.76608 39.7536 8.98762 39.8532 9.23148C39.9528 9.47534 40.0027 9.73661 40 10V30.02C40 30.54 39.8 31.06 39.44 31.44Z" fill="#0F0F0F"/>
<path d="M17.46 15.46C16.52 16.4 16 17.66 16 19V24.66C16 25.76 16.9 26.66 18 26.66C19.1 26.66 20 25.76 20 24.66V24.06H22V24.66C22 25.76 22.9 26.66 24 26.66C25.1 26.66 26 25.76 26 24.66V19C26 17.66 25.48 16.4 24.54 15.46C22.68 13.58 19.34 13.58 17.46 15.46ZM20 20.06V19C20 18.74 20.1 18.48 20.3 18.3C20.66 17.94 21.32 17.92 21.72 18.3C21.9011 18.4879 22.0016 18.7391 22 19V20.06H20ZM30 14C28.9 14 28 14.9 28 16V24.66C28 25.76 28.9 26.66 30 26.66C31.1 26.66 32 25.76 32 24.66V16C32 14.9 31.1 14 30 14Z" fill="#0F0F0F"/>
<path d="M53.517 29V11.5455H57.2074V25.9574H64.6903V29H53.517ZM72.9808 29.2557C71.657 29.2557 70.5121 28.9744 69.5462 28.4119C68.5859 27.8437 67.8445 27.054 67.3217 26.0426C66.799 25.0256 66.5376 23.8466 66.5376 22.5057C66.5376 21.1534 66.799 19.9716 67.3217 18.9602C67.8445 17.9432 68.5859 17.1534 69.5462 16.5909C70.5121 16.0227 71.657 15.7386 72.9808 15.7386C74.3047 15.7386 75.4467 16.0227 76.407 16.5909C77.3729 17.1534 78.1172 17.9432 78.6399 18.9602C79.1626 19.9716 79.424 21.1534 79.424 22.5057C79.424 23.8466 79.1626 25.0256 78.6399 26.0426C78.1172 27.054 77.3729 27.8437 76.407 28.4119C75.4467 28.9744 74.3047 29.2557 72.9808 29.2557ZM72.9979 26.4432C73.6001 26.4432 74.103 26.2727 74.5064 25.9318C74.9098 25.5852 75.2138 25.1136 75.4183 24.517C75.6286 23.9205 75.7337 23.2415 75.7337 22.4801C75.7337 21.7188 75.6286 21.0398 75.4183 20.4432C75.2138 19.8466 74.9098 19.375 74.5064 19.0284C74.103 18.6818 73.6001 18.5085 72.9979 18.5085C72.3899 18.5085 71.8786 18.6818 71.4638 19.0284C71.0547 19.375 70.745 19.8466 70.5348 20.4432C70.3303 21.0398 70.228 21.7188 70.228 22.4801C70.228 23.2415 70.3303 23.9205 70.5348 24.517C70.745 25.1136 71.0547 25.5852 71.4638 25.9318C71.8786 26.2727 72.3899 26.4432 72.9979 26.4432ZM87.6825 34.1818C86.5064 34.1818 85.4979 34.0199 84.657 33.696C83.8217 33.3778 83.157 32.9432 82.6626 32.392C82.1683 31.8409 81.8473 31.2216 81.6996 30.5341L85.0575 30.0824C85.1598 30.3438 85.3217 30.5881 85.5433 30.8153C85.7649 31.0426 86.0575 31.2244 86.4212 31.3608C86.7905 31.5028 87.2393 31.5739 87.7678 31.5739C88.5575 31.5739 89.2081 31.3807 89.7195 30.9943C90.2365 30.6136 90.495 29.9744 90.495 29.0767V26.6818H90.3416C90.1825 27.0455 89.9439 27.3892 89.6257 27.7131C89.3075 28.0369 88.8984 28.3011 88.3984 28.5057C87.8984 28.7102 87.3018 28.8125 86.6087 28.8125C85.6257 28.8125 84.7308 28.5852 83.924 28.1307C83.1229 27.6705 82.4837 26.9687 82.0064 26.0256C81.5348 25.0767 81.299 23.8778 81.299 22.429C81.299 20.946 81.5405 19.7074 82.0234 18.7131C82.5064 17.7187 83.1484 16.9744 83.9496 16.4801C84.7564 15.9858 85.6399 15.7386 86.6001 15.7386C87.3331 15.7386 87.9467 15.8636 88.4411 16.1136C88.9354 16.358 89.3331 16.6648 89.6342 17.0341C89.9411 17.3977 90.1768 17.7557 90.3416 18.108H90.478V15.9091H94.0831V29.1278C94.0831 30.2415 93.8104 31.1733 93.2649 31.9233C92.7195 32.6733 91.9638 33.2358 90.9979 33.6108C90.0376 33.9915 88.9325 34.1818 87.6825 34.1818ZM87.7592 26.0852C88.3445 26.0852 88.8388 25.9403 89.2422 25.6506C89.6513 25.3551 89.9638 24.9347 90.1797 24.3892C90.4013 23.8381 90.5121 23.179 90.5121 22.4119C90.5121 21.6449 90.4041 20.9801 90.1882 20.4176C89.9723 19.8494 89.6598 19.4091 89.2507 19.0966C88.8416 18.7841 88.3445 18.6278 87.7592 18.6278C87.1626 18.6278 86.6598 18.7898 86.2507 19.1136C85.8416 19.4318 85.532 19.875 85.3217 20.4432C85.1115 21.0114 85.0064 21.6676 85.0064 22.4119C85.0064 23.1676 85.1115 23.821 85.3217 24.3722C85.5376 24.9176 85.8473 25.3409 86.2507 25.642C86.6598 25.9375 87.1626 26.0852 87.7592 26.0852ZM102.887 29.2557C101.563 29.2557 100.418 28.9744 99.4524 28.4119C98.4922 27.8437 97.7507 27.054 97.228 26.0426C96.7053 25.0256 96.4439 23.8466 96.4439 22.5057C96.4439 21.1534 96.7053 19.9716 97.228 18.9602C97.7507 17.9432 98.4922 17.1534 99.4524 16.5909C100.418 16.0227 101.563 15.7386 102.887 15.7386C104.211 15.7386 105.353 16.0227 106.313 16.5909C107.279 17.1534 108.023 17.9432 108.546 18.9602C109.069 19.9716 109.33 21.1534 109.33 22.5057C109.33 23.8466 109.069 25.0256 108.546 26.0426C108.023 27.054 107.279 27.8437 106.313 28.4119C105.353 28.9744 104.211 29.2557 102.887 29.2557ZM102.904 26.4432C103.506 26.4432 104.009 26.2727 104.413 25.9318C104.816 25.5852 105.12 25.1136 105.325 24.517C105.535 23.9205 105.64 23.2415 105.64 22.4801C105.64 21.7188 105.535 21.0398 105.325 20.4432C105.12 19.8466 104.816 19.375 104.413 19.0284C104.009 18.6818 103.506 18.5085 102.904 18.5085C102.296 18.5085 101.785 18.6818 101.37 19.0284C100.961 19.375 100.651 19.8466 100.441 20.4432C100.237 21.0398 100.134 21.7188 100.134 22.4801C100.134 23.2415 100.237 23.9205 100.441 24.517C100.651 25.1136 100.961 25.5852 101.37 25.9318C101.785 26.2727 102.296 26.4432 102.904 26.4432ZM118.654 15.9091V18.6364H110.771V15.9091H118.654ZM112.56 12.7727H116.191V24.9773C116.191 25.3125 116.242 25.5739 116.344 25.7614C116.447 25.9432 116.589 26.071 116.771 26.1449C116.958 26.2187 117.174 26.2557 117.418 26.2557C117.589 26.2557 117.759 26.2415 117.93 26.2131C118.1 26.179 118.231 26.1534 118.322 26.1364L118.893 28.8381C118.711 28.8949 118.455 28.9602 118.126 29.0341C117.796 29.1136 117.396 29.1619 116.924 29.179C116.049 29.2131 115.282 29.0966 114.623 28.8295C113.969 28.5625 113.461 28.1477 113.097 27.5852C112.734 27.0227 112.555 26.3125 112.56 25.4545V12.7727ZM123.261 33.9091C122.8 33.9091 122.369 33.8722 121.965 33.7983C121.567 33.7301 121.238 33.642 120.977 33.5341L121.795 30.8239C122.221 30.9545 122.604 31.0256 122.945 31.0369C123.292 31.0483 123.59 30.9688 123.84 30.7983C124.096 30.6278 124.303 30.3381 124.462 29.929L124.675 29.375L119.979 15.9091H123.798L126.508 25.5227H126.644L129.38 15.9091H133.224L128.136 30.4148C127.891 31.1193 127.559 31.733 127.138 32.2557C126.724 32.7841 126.198 33.1903 125.562 33.4744C124.925 33.7642 124.158 33.9091 123.261 33.9091ZM135.082 33.9091V15.9091H138.661V18.108H138.823C138.982 17.7557 139.212 17.3977 139.513 17.0341C139.82 16.6648 140.218 16.358 140.707 16.1136C141.201 15.8636 141.815 15.7386 142.548 15.7386C143.502 15.7386 144.383 15.9886 145.19 16.4886C145.996 16.983 146.641 17.7301 147.124 18.7301C147.607 19.7244 147.849 20.9716 147.849 22.4716C147.849 23.9318 147.613 25.1648 147.141 26.1705C146.675 27.1705 146.039 27.929 145.232 28.446C144.431 28.9574 143.533 29.2131 142.539 29.2131C141.835 29.2131 141.235 29.0966 140.741 28.8636C140.252 28.6307 139.852 28.3381 139.539 27.9858C139.227 27.6278 138.988 27.267 138.823 26.9034H138.712V33.9091H135.082ZM138.636 22.4545C138.636 23.233 138.744 23.9119 138.96 24.4915C139.175 25.071 139.488 25.5227 139.897 25.8466C140.306 26.1648 140.803 26.3239 141.388 26.3239C141.979 26.3239 142.479 26.1619 142.888 25.8381C143.298 25.5085 143.607 25.054 143.817 24.4744C144.033 23.8892 144.141 23.2159 144.141 22.4545C144.141 21.6989 144.036 21.0341 143.826 20.4602C143.616 19.8864 143.306 19.4375 142.897 19.1136C142.488 18.7898 141.985 18.6278 141.388 18.6278C140.798 18.6278 140.298 18.7841 139.888 19.0966C139.485 19.4091 139.175 19.8523 138.96 20.4261C138.744 21 138.636 21.6761 138.636 22.4545ZM156.235 29.2557C154.888 29.2557 153.729 28.983 152.758 28.4375C151.792 27.8864 151.048 27.108 150.525 26.1023C150.002 25.0909 149.741 23.8949 149.741 22.5142C149.741 21.1676 150.002 19.9858 150.525 18.9688C151.048 17.9517 151.783 17.1591 152.732 16.5909C153.687 16.0227 154.806 15.7386 156.09 15.7386C156.954 15.7386 157.758 15.8778 158.502 16.1562C159.252 16.429 159.906 16.8409 160.462 17.392C161.025 17.9432 161.462 18.6364 161.775 19.4716C162.087 20.3011 162.244 21.2727 162.244 22.3864V23.3835H151.19V21.1335H158.826C158.826 20.6108 158.712 20.1477 158.485 19.7443C158.258 19.3409 157.942 19.0256 157.539 18.7983C157.141 18.5653 156.678 18.4489 156.15 18.4489C155.599 18.4489 155.11 18.5767 154.684 18.8324C154.263 19.0824 153.934 19.4205 153.695 19.8466C153.457 20.267 153.335 20.7358 153.329 21.2528V23.392C153.329 24.0398 153.448 24.5994 153.687 25.071C153.931 25.5426 154.275 25.9062 154.718 26.1619C155.161 26.4176 155.687 26.5455 156.295 26.5455C156.698 26.5455 157.067 26.4886 157.403 26.375C157.738 26.2614 158.025 26.0909 158.263 25.8636C158.502 25.6364 158.684 25.358 158.809 25.0284L162.167 25.25C161.996 26.0568 161.647 26.7614 161.119 27.3636C160.596 27.9602 159.92 28.4261 159.09 28.7614C158.266 29.0909 157.315 29.2557 156.235 29.2557Z" fill="#0F0F0F"/>
</svg>
